<?xml version="1.0" standalone="no"?>
<!DOCTYPE svg PUBLIC "-//W3C//DTD SVG 20010904//EN"
 "http://www.w3.org/TR/2001/REC-SVG-20010904/DTD/svg10.dtd">
<svg version="1.0" xmlns="http://www.w3.org/2000/svg"
 width="128.000000pt" height="134.000000pt" viewBox="0 0 128.000000 134.000000"
 preserveAspectRatio="xMidYMid meet">

<g transform="translate(0.000000,134.000000) scale(0.100000,-0.100000)"
fill="#000000" stroke="none">
<path d="M195 1220 c-2 -3 -5 -246 -6 -540 l-4 -535 25 -12 c35 -18 870 -19
888 -1 17 17 17 880 0 911 -20 38 -120 157 -142 170 -15 8 -123 12 -389 12
-203 0 -370 -2 -372 -5z m713 -26 c22 -6 23 -9 16 -85 -9 -102 -3 -109 87
-109 l69 0 0 -426 0 -426 -429 4 c-236 1 -431 5 -433 8 -2 3 -2 236 0 517 l3
513 287 3 c158 1 307 3 332 5 25 1 55 -1 68 -4z m143 -136 c9 -16 5 -18 -39
-18 -27 0 -51 2 -53 4 -2 2 -2 31 0 63 l3 58 40 -45 c22 -24 44 -52 49 -62z"/>
<path d="M605 873 c-57 -15 -100 -74 -93 -129 3 -26 7 -29 38 -29 28 0 36 4
38 21 4 30 36 56 64 52 18 -2 24 -10 26 -37 3 -27 -3 -41 -31 -70 -37 -38 -52
-95 -36 -139 7 -18 15 -23 37 -20 24 3 28 8 32 50 5 39 13 54 48 86 38 36 42
43 42 88 0 63 -17 95 -60 116 -34 18 -65 21 -105 11z"/>
<path d="M610 475 c-17 -21 -9 -47 22 -64 22 -13 29 -13 42 -2 25 21 20 56 -9
69 -33 15 -40 15 -55 -3z"/>
</g>
</svg>
