<?xml version="1.0" standalone="no"?>
<!DOCTYPE svg PUBLIC "-//W3C//DTD SVG 20010904//EN"
 "http://www.w3.org/TR/2001/REC-SVG-20010904/DTD/svg10.dtd">
<svg version="1.0" xmlns="http://www.w3.org/2000/svg"
 width="128.000000pt" height="134.000000pt" viewBox="0 0 128.000000 134.000000"
 preserveAspectRatio="xMidYMid meet">

<g transform="translate(0.000000,134.000000) scale(0.100000,-0.100000)"
fill="#000000" stroke="none">
<path d="M520 1204 c-25 -14 -54 -34 -65 -44 -16 -15 -39 -20 -100 -22 l-80
-3 -3 -72 -3 -71 -100 -97 -101 -96 -1 -324 c-2 -299 -1 -325 16 -342 17 -17
54 -18 561 -21 491 -3 545 -2 560 13 14 15 16 55 16 343 l0 327 -95 95 -94 94
-3 75 -3 76 -79 3 c-71 3 -83 6 -113 32 -71 63 -232 80 -313 34z m231 -30 c52
-16 96 -59 130 -124 33 -65 33 -169 0 -227 -28 -49 -83 -96 -144 -123 -117
-54 -263 7 -317 132 -18 43 -22 65 -18 123 7 111 54 181 148 224 50 23 117 22
201 -5z m-351 -73 c0 -5 -7 -26 -16 -47 -23 -56 -21 -166 5 -234 36 -96 128
-163 240 -177 64 -7 128 15 196 67 107 83 147 220 97 334 -12 27 -22 52 -22
57 0 5 20 9 45 9 l45 0 0 -212 0 -213 -33 -22 c-122 -82 -323 -187 -340 -177
-7 4 -81 50 -164 102 l-153 96 0 207 c0 157 3 209 13 212 21 9 87 7 87 -2z
m-130 -274 c0 -57 -3 -106 -6 -110 -7 -7 -59 23 -104 62 l-35 30 60 60 c33 34
65 61 72 61 10 0 13 -26 13 -103z m832 36 l57 -57 -59 -43 c-33 -24 -62 -43
-65 -43 -3 0 -5 45 -5 100 0 55 3 100 7 100 4 0 33 -26 65 -57z m88 -388 c0
-162 -4 -295 -8 -295 -5 0 -26 15 -48 33 -21 19 -111 91 -199 161 -88 71 -161
131 -162 135 -1 3 34 26 77 50 44 24 133 81 198 127 64 45 123 83 130 83 9 1
12 -64 12 -294z m-961 212 c64 -40 151 -95 194 -121 42 -26 77 -50 77 -54 -1
-4 -46 -43 -102 -87 -56 -44 -144 -115 -195 -158 -52 -43 -97 -77 -99 -74 -11
11 -9 567 2 567 4 0 59 -33 123 -73z m353 -217 c41 -25 54 -25 104 -1 28 14
44 16 57 10 13 -8 271 -212 384 -305 7 -6 13 -14 13 -18 0 -3 -228 -6 -507 -6
l-506 0 19 22 c24 27 386 318 396 318 4 0 22 -9 40 -20z"/>
<path d="M608 1106 c-90 -33 -118 -76 -118 -181 0 -83 19 -118 80 -147 89 -44
209 -21 218 41 4 27 1 27 -45 -5 -32 -22 -46 -25 -89 -21 -98 10 -134 46 -134
133 0 96 57 154 151 154 36 0 48 -6 82 -41 33 -36 38 -46 33 -73 -7 -33 -41
-74 -52 -63 -4 3 -8 23 -10 42 -3 46 -16 61 -60 69 -47 9 -91 -21 -100 -70
-14 -73 28 -106 93 -73 25 13 40 16 47 9 18 -18 62 -11 85 14 35 37 39 102 9
145 -48 71 -116 95 -190 67z m77 -135 c10 -17 -17 -60 -47 -72 -25 -10 -31
-10 -39 2 -9 15 -3 46 13 67 12 14 64 16 73 3z"/>
</g>
</svg>
