<?xml version="1.0" standalone="no"?>
<!DOCTYPE svg PUBLIC "-//W3C//DTD SVG 20010904//EN"
 "http://www.w3.org/TR/2001/REC-SVG-20010904/DTD/svg10.dtd">
<svg version="1.0" xmlns="http://www.w3.org/2000/svg"
 width="128.000000pt" height="134.000000pt" viewBox="0 0 128.000000 134.000000"
 preserveAspectRatio="xMidYMid meet">

<g transform="translate(0.000000,134.000000) scale(0.100000,-0.100000)"
fill="#000000" stroke="none">
<path d="M870 1217 c-70 -20 -109 -48 -195 -144 -44 -48 -100 -107 -125 -130
-25 -23 -52 -53 -60 -67 -7 -14 -40 -47 -73 -73 -119 -93 -272 -254 -303 -317
-37 -77 -39 -170 -6 -233 24 -47 91 -105 145 -128 131 -55 287 39 479 286 35
45 79 90 103 103 58 35 318 305 344 358 23 49 27 117 9 169 -21 63 -78 139
-121 161 -50 25 -137 32 -197 15z m163 -41 c66 -27 136 -135 137 -209 0 -70
-37 -122 -214 -296 -135 -134 -157 -150 -224 -158 -87 -10 -171 36 -212 117
l-19 37 25 12 c37 17 54 14 98 -16 31 -22 51 -28 92 -28 46 0 57 4 100 41 76
64 223 242 236 287 10 34 9 44 -8 76 -11 21 -34 43 -56 54 -65 32 -89 20 -218
-114 l-115 -119 -69 0 -68 0 137 144 c84 89 153 153 178 165 50 25 150 28 200
7z m-39 -127 c20 -15 26 -29 26 -58 0 -30 -11 -51 -64 -116 -35 -44 -82 -97
-104 -119 l-40 -38 -20 39 c-11 22 -39 52 -61 67 l-41 28 81 87 c124 134 166
155 223 110z m-304 -241 c46 -23 90 -77 90 -109 0 -21 -60 -44 -91 -34 -12 4
-37 18 -56 31 -77 52 -145 23 -283 -123 -116 -122 -141 -183 -105 -253 21 -41
53 -60 101 -60 56 0 92 26 184 135 l77 90 59 -4 c32 -1 62 -5 67 -8 11 -6
-107 -146 -185 -218 -133 -123 -223 -143 -329 -72 -146 97 -135 258 30 424 89
90 187 175 231 202 50 30 150 29 210 -1z m-205 -188 c3 -10 26 -40 51 -66 40
-41 44 -48 31 -63 -7 -9 -40 -47 -72 -86 -32 -38 -72 -80 -89 -92 -97 -72
-185 40 -114 143 36 52 163 184 176 184 6 0 13 -9 17 -20z"/>
</g>
</svg>
