<svg xmlns="http://www.w3.org/2000/svg" width="128" height="134" viewBox="0 0 128 134" version="1.1"><path d="M 67.358 12.896 C 61.936 16.059, 52.918 21.480, 47.319 24.943 L 37.137 31.239 23.533 31.563 C 16.051 31.742, 9.044 32.169, 7.963 32.512 C 3.926 33.793, 3.618 36.215, 2.755 73.500 C 1.872 111.686, 2.207 121.130, 4.575 124.750 L 6.046 127 55.368 127 C 101.392 127, 104.798 126.881, 106.301 125.220 C 108.468 122.825, 123.761 78.780, 125.381 70.268 C 127.516 59.051, 125.964 56.987, 115.144 56.653 C 110.882 56.521, 110.321 56.272, 111.082 54.849 C 112.049 53.040, 110.003 44.914, 107.961 42.454 C 107.265 41.615, 105.010 40.997, 102.628 40.993 L 98.500 40.985 90.342 27.243 C 85.854 19.684, 81.631 12.287, 80.956 10.805 C 80.281 9.323, 79.164 7.893, 78.473 7.628 C 77.781 7.363, 72.780 9.733, 67.358 12.896 M 65.500 18.336 C 60 21.734, 48.190 28.961, 39.254 34.396 L 23.009 44.278 24.865 47.389 C 25.886 49.100, 27.489 51.850, 28.428 53.500 L 30.135 56.500 38.818 56.141 C 48.468 55.741, 49.414 55.335, 65.212 44.806 C 70.003 41.613, 74.589 39, 75.403 39 C 79.200 39, 77.154 41.209, 67.898 47.105 C 52.913 56.649, 53.388 55.932, 62.021 55.968 C 69.155 55.998, 69.938 55.768, 77.229 51.500 C 81.457 49.025, 85.160 47, 85.458 47 C 85.756 47, 85.998 47.788, 85.996 48.750 C 85.994 49.783, 84.112 51.563, 81.402 53.095 L 76.813 55.689 89.038 56.380 C 95.761 56.760, 101.428 56.905, 101.631 56.703 C 102.117 56.216, 91.154 35.843, 84.591 25.036 C 77.469 13.309, 76.594 11.988, 76.009 12.079 C 75.729 12.123, 71 14.938, 65.500 18.336 M 56.421 37.791 C 37.102 49.991, 37 50.064, 37 51.615 C 37 54.117, 39.367 53.086, 50 45.951 C 55.775 42.075, 63.313 37.257, 66.750 35.244 C 72.554 31.846, 74.796 29, 71.671 29 C 70.940 29, 64.078 32.956, 56.421 37.791 M 8.332 37.250 C 7.260 38.954, 5.870 112.625, 6.806 118.112 L 7.555 122.500 55.647 122.760 C 95.520 122.975, 103.935 122.784, 104.883 121.641 C 105.512 120.883, 107.112 116.716, 108.439 112.381 C 109.766 108.047, 113.402 97.075, 116.518 88 C 119.995 77.878, 122.246 69.603, 122.343 66.592 C 122.492 61.945, 122.341 61.640, 119.528 60.869 C 117.893 60.421, 97.643 59.929, 74.528 59.777 C 24.552 59.448, 25.130 59.363, 22.121 67.405 C 19.532 74.325, 17.773 81.359, 14.469 98 C 11.654 112.179, 9.671 117.820, 8.528 114.902 C 7.779 112.989, 14.191 80.201, 17.103 71.050 C 19.849 62.420, 21.579 59.268, 23.989 58.503 C 26.675 57.651, 26.575 57.109, 22.473 50.223 C 20.531 46.962, 19.210 43.617, 19.532 42.777 C 19.854 41.937, 21.913 40.441, 24.107 39.452 C 26.301 38.462, 28.326 37.281, 28.607 36.826 C 28.888 36.372, 24.618 36, 19.118 36 C 12.204 36, 8.875 36.386, 8.332 37.250 M 103.236 51.250 L 106.500 57.500 106.808 52.672 C 107.156 47.215, 105.873 45, 102.363 45 L 99.971 45 103.236 51.250" stroke="none" fill="#4c4c4c" fill-rule="evenodd"/><path d="M 65.500 18.336 C 60 21.734, 48.190 28.961, 39.254 34.396 L 23.009 44.278 24.865 47.389 C 25.886 49.100, 27.489 51.850, 28.428 53.500 L 30.135 56.500 38.818 56.141 C 48.468 55.741, 49.414 55.335, 65.212 44.806 C 70.003 41.613, 74.589 39, 75.403 39 C 79.200 39, 77.154 41.209, 67.898 47.105 C 52.913 56.649, 53.388 55.932, 62.021 55.968 C 69.155 55.998, 69.938 55.768, 77.229 51.500 C 81.457 49.025, 85.160 47, 85.458 47 C 85.756 47, 85.998 47.788, 85.996 48.750 C 85.994 49.783, 84.112 51.563, 81.402 53.095 L 76.813 55.689 89.038 56.380 C 95.761 56.760, 101.428 56.905, 101.631 56.703 C 102.117 56.216, 91.154 35.843, 84.591 25.036 C 77.469 13.309, 76.594 11.988, 76.009 12.079 C 75.729 12.123, 71 14.938, 65.500 18.336 M 56.421 37.791 C 37.102 49.991, 37 50.064, 37 51.615 C 37 54.117, 39.367 53.086, 50 45.951 C 55.775 42.075, 63.313 37.257, 66.750 35.244 C 72.554 31.846, 74.796 29, 71.671 29 C 70.940 29, 64.078 32.956, 56.421 37.791 M 8.332 37.250 C 7.260 38.954, 5.870 112.625, 6.806 118.112 L 7.555 122.500 55.647 122.760 C 95.520 122.975, 103.935 122.784, 104.883 121.641 C 105.512 120.883, 107.112 116.716, 108.439 112.381 C 109.766 108.047, 113.402 97.075, 116.518 88 C 119.995 77.878, 122.246 69.603, 122.343 66.592 C 122.492 61.945, 122.341 61.640, 119.528 60.869 C 117.893 60.421, 97.643 59.929, 74.528 59.777 C 24.552 59.448, 25.130 59.363, 22.121 67.405 C 19.532 74.325, 17.773 81.359, 14.469 98 C 11.654 112.179, 9.671 117.820, 8.528 114.902 C 7.779 112.989, 14.191 80.201, 17.103 71.050 C 19.849 62.420, 21.579 59.268, 23.989 58.503 C 26.675 57.651, 26.575 57.109, 22.473 50.223 C 20.531 46.962, 19.210 43.617, 19.532 42.777 C 19.854 41.937, 21.913 40.441, 24.107 39.452 C 26.301 38.462, 28.326 37.281, 28.607 36.826 C 28.888 36.372, 24.618 36, 19.118 36 C 12.204 36, 8.875 36.386, 8.332 37.250 M 103.236 51.250 L 106.500 57.500 106.808 52.672 C 107.156 47.215, 105.873 45, 102.363 45 L 99.971 45 103.236 51.250 M 110.638 55.500 C 110.322 56.325, 110.499 57, 111.031 57 C 111.564 57, 112 56.325, 112 55.500 C 112 54.675, 111.823 54, 111.607 54 C 111.391 54, 110.955 54.675, 110.638 55.500 M 125.328 70.292 C 123.995 78.076, 108.510 122.779, 106.301 125.220 C 104.798 126.881, 101.399 127, 55.545 127 C 17.601 127, 6.099 126.715, 5.078 125.750 C 3.986 124.718, 3.957 124.893, 4.913 126.750 L 6.070 129 56.512 129 L 106.954 129 108.415 126.750 C 109.219 125.513, 111.003 121.125, 112.379 117 C 113.755 112.875, 117.409 102.075, 120.499 93 C 125.266 79, 128.550 64, 126.848 64 C 126.605 64, 125.921 66.831, 125.328 70.292" stroke="none" fill="#f8f8f8" fill-rule="evenodd"/></svg>