<svg xmlns="http://www.w3.org/2000/svg" width="128" height="134" viewBox="0 0 128 134" version="1.1"><path d="M 53.500 11.867 C 51.300 12.870, 48.085 14.885, 46.356 16.345 C 43.605 18.668, 42.332 19, 36.187 19 C 25.969 19, 26 18.974, 26 27.463 L 26 34.711 16.115 44.241 L 6.231 53.772 5.487 77.570 C 4.683 103.321, 5.151 118.551, 6.799 120.199 C 9.087 122.487, 18.587 122.915, 68.128 122.956 C 109.180 122.991, 119.975 122.735, 120.829 121.706 C 121.539 120.850, 121.954 109.123, 122.054 87.022 L 122.205 53.632 112.544 44.111 L 102.883 34.590 103.163 27.741 C 103.501 19.452, 103.050 19.036, 93.691 19.015 C 87.706 19.002, 86.436 18.649, 83.191 16.100 C 75.911 10.380, 61.324 8.301, 53.500 11.867 M 56.621 15.520 C 47.235 18.746, 40.002 29.275, 40.001 39.712 C 39.999 54.613, 50.045 65.394, 64 65.466 C 77.630 65.537, 89.355 55.056, 90.674 41.622 C 91.116 37.118, 90.713 35.595, 87.338 29 C 83.256 21.023, 79.622 17.729, 73.099 16.093 C 66.626 14.470, 60.313 14.250, 56.621 15.520 M 61.365 22.953 C 57.003 23.993, 52.279 27.570, 50.301 31.329 C 48.046 35.616, 48.066 46.421, 50.337 50.740 C 53.755 57.240, 67.155 61.038, 74.066 57.467 C 77.404 55.742, 79.904 53.308, 79.968 51.719 C 80.042 49.893, 76.995 50.005, 75.103 51.897 C 70.792 56.208, 61.051 55.804, 55.783 51.097 C 53.215 48.803, 52.616 47.414, 52.241 42.888 C 51.592 35.060, 53.737 30.475, 59.212 27.990 C 66.974 24.467, 72.449 25.700, 76.548 31.893 C 79.333 36.102, 79.249 38.808, 76.227 42.250 C 73.912 44.886, 73 44.379, 73 40.455 C 73 35.858, 69.335 32, 64.969 32 C 57.845 32, 53.136 42.136, 58 47 C 60.474 49.474, 61.612 49.493, 66.008 47.136 C 69.159 45.445, 69.700 45.413, 71.799 46.788 C 73.911 48.172, 74.351 48.132, 76.807 46.338 C 78.288 45.256, 80.282 42.802, 81.237 40.884 C 83.385 36.575, 82.362 32.042, 78.270 27.736 C 73.136 22.334, 68.938 21.146, 61.365 22.953 M 30 44.784 L 30 65.569 33.250 67.450 C 35.038 68.484, 42.125 72.930, 49 77.328 C 55.875 81.727, 61.976 85.328, 62.557 85.330 C 64.227 85.335, 79.611 77.332, 89.750 71.183 L 99 65.573 99 44.786 L 99 24 94.500 24 C 92.025 24, 90 24.243, 90 24.540 C 90 24.837, 90.996 26.974, 92.213 29.290 C 95.221 35.013, 95.258 44.683, 92.296 51.196 C 89.434 57.489, 82.136 64.591, 75.328 67.707 C 61.769 73.915, 44.296 66.425, 38.940 52.109 C 35.402 42.654, 35.557 34.901, 39.466 25.750 C 40.122 24.214, 39.589 24, 35.107 24 L 30 24 30 44.784 M 61.655 37.829 C 59.827 39.849, 59.452 43.543, 60.979 44.487 C 62.538 45.450, 65.848 43.194, 67.465 40.068 C 68.791 37.503, 68.784 37.131, 67.393 36.597 C 64.808 35.605, 63.392 35.909, 61.655 37.829 M 19.255 46.584 C 14.100 51.180, 13.178 52.465, 13.974 53.951 C 15.056 55.973, 24.801 62.532, 25.574 61.759 C 25.849 61.485, 25.944 56.706, 25.786 51.139 L 25.500 41.018 19.255 46.584 M 103 52.021 L 103 62.113 106.076 60.307 C 107.768 59.313, 110.580 57.284, 112.326 55.797 L 115.500 53.094 111 48.541 C 102.994 40.440, 103 40.438, 103 52.021 M 106.500 64.553 C 100.450 68.740, 91.333 74.632, 86.240 77.647 L 76.980 83.128 92.740 95.732 C 101.408 102.663, 110.366 109.891, 112.646 111.792 C 114.926 113.694, 117.103 115.194, 117.484 115.126 C 118.417 114.960, 119.056 65.498, 118.187 60.720 L 117.500 56.941 106.500 64.553 M 10.642 62.208 C 10.080 66.251, 9.773 85, 9.930 105.736 L 10 114.971 29.953 99.236 C 40.927 90.581, 49.927 83.246, 49.953 82.935 C 49.979 82.624, 42.237 77.536, 32.750 71.629 C 23.262 65.721, 14.541 60.219, 13.370 59.401 C 11.313 57.966, 11.219 58.063, 10.642 62.208 M 34.054 100.792 C 23.358 109.431, 14.433 117.063, 14.220 117.750 C 13.914 118.739, 24.322 119, 63.976 119 C 96.111 119, 113.903 118.652, 113.519 118.030 C 112.743 116.775, 89.586 97.847, 80.048 90.671 L 72.680 85.128 67.980 87.510 L 63.280 89.892 58.686 87.446 C 56.159 86.101, 53.958 85.019, 53.796 85.042 C 53.633 85.064, 44.749 92.152, 34.054 100.792" stroke="none" fill="#4a4a4a" fill-rule="evenodd"/><path d="M 56.621 15.520 C 47.235 18.746, 40.002 29.275, 40.001 39.712 C 39.999 54.613, 50.045 65.394, 64 65.466 C 77.630 65.537, 89.355 55.056, 90.674 41.622 C 91.116 37.118, 90.713 35.595, 87.338 29 C 83.256 21.023, 79.622 17.729, 73.099 16.093 C 66.626 14.470, 60.313 14.250, 56.621 15.520 M 61.365 22.953 C 57.003 23.993, 52.279 27.570, 50.301 31.329 C 48.046 35.616, 48.066 46.421, 50.337 50.740 C 53.755 57.240, 67.155 61.038, 74.066 57.467 C 77.404 55.742, 79.904 53.308, 79.968 51.719 C 80.042 49.893, 76.995 50.005, 75.103 51.897 C 70.792 56.208, 61.051 55.804, 55.783 51.097 C 53.215 48.803, 52.616 47.414, 52.241 42.888 C 51.592 35.060, 53.737 30.475, 59.212 27.990 C 66.974 24.467, 72.449 25.700, 76.548 31.893 C 79.333 36.102, 79.249 38.808, 76.227 42.250 C 73.912 44.886, 73 44.379, 73 40.455 C 73 35.858, 69.335 32, 64.969 32 C 57.845 32, 53.136 42.136, 58 47 C 60.474 49.474, 61.612 49.493, 66.008 47.136 C 69.159 45.445, 69.700 45.413, 71.799 46.788 C 73.911 48.172, 74.351 48.132, 76.807 46.338 C 78.288 45.256, 80.282 42.802, 81.237 40.884 C 83.385 36.575, 82.362 32.042, 78.270 27.736 C 73.136 22.334, 68.938 21.146, 61.365 22.953 M 30 44.784 L 30 65.569 33.250 67.450 C 35.038 68.484, 42.125 72.930, 49 77.328 C 55.875 81.727, 61.976 85.328, 62.557 85.330 C 64.227 85.335, 79.611 77.332, 89.750 71.183 L 99 65.573 99 44.786 L 99 24 94.500 24 C 92.025 24, 90 24.243, 90 24.540 C 90 24.837, 90.996 26.974, 92.213 29.290 C 95.221 35.013, 95.258 44.683, 92.296 51.196 C 89.434 57.489, 82.136 64.591, 75.328 67.707 C 61.769 73.915, 44.296 66.425, 38.940 52.109 C 35.402 42.654, 35.557 34.901, 39.466 25.750 C 40.122 24.214, 39.589 24, 35.107 24 L 30 24 30 44.784 M 103.320 30 C 103.320 33.575, 103.502 35.038, 103.723 33.250 C 103.945 31.462, 103.945 28.538, 103.723 26.750 C 103.502 24.962, 103.320 26.425, 103.320 30 M 61.655 37.829 C 59.827 39.849, 59.452 43.543, 60.979 44.487 C 62.538 45.450, 65.848 43.194, 67.465 40.068 C 68.791 37.503, 68.784 37.131, 67.393 36.597 C 64.808 35.605, 63.392 35.909, 61.655 37.829 M 19.255 46.584 C 14.100 51.180, 13.178 52.465, 13.974 53.951 C 15.056 55.973, 24.801 62.532, 25.574 61.759 C 25.849 61.485, 25.944 56.706, 25.786 51.139 L 25.500 41.018 19.255 46.584 M 103 52.021 L 103 62.113 106.076 60.307 C 107.768 59.313, 110.580 57.284, 112.326 55.797 L 115.500 53.094 111 48.541 C 102.994 40.440, 103 40.438, 103 52.021 M 106.500 64.553 C 100.450 68.740, 91.333 74.632, 86.240 77.647 L 76.980 83.128 92.740 95.732 C 101.408 102.663, 110.366 109.891, 112.646 111.792 C 114.926 113.694, 117.103 115.194, 117.484 115.126 C 118.417 114.960, 119.056 65.498, 118.187 60.720 L 117.500 56.941 106.500 64.553 M 122.236 88.628 C 122.043 114.847, 121.741 120.970, 120.589 121.926 C 118.912 123.318, 11.639 123.041, 8.750 121.637 C 7.498 121.028, 7 121.197, 7 122.232 C 7 125.744, 11.030 126, 66.425 126 C 111.186 126, 120.955 125.759, 121.891 124.631 C 122.702 123.654, 122.948 113.701, 122.750 89.881 L 122.472 56.500 122.236 88.628 M 10.642 62.208 C 10.080 66.251, 9.773 85, 9.930 105.736 L 10 114.971 29.953 99.236 C 40.927 90.581, 49.927 83.246, 49.953 82.935 C 49.979 82.624, 42.237 77.536, 32.750 71.629 C 23.262 65.721, 14.541 60.219, 13.370 59.401 C 11.313 57.966, 11.219 58.063, 10.642 62.208 M 34.054 100.792 C 23.358 109.431, 14.433 117.063, 14.220 117.750 C 13.914 118.739, 24.322 119, 63.976 119 C 96.111 119, 113.903 118.652, 113.519 118.030 C 112.743 116.775, 89.586 97.847, 80.048 90.671 L 72.680 85.128 67.980 87.510 L 63.280 89.892 58.686 87.446 C 56.159 86.101, 53.958 85.019, 53.796 85.042 C 53.633 85.064, 44.749 92.152, 34.054 100.792" stroke="none" fill="#f4f4f4" fill-rule="evenodd"/></svg>