<svg xmlns="http://www.w3.org/2000/svg" width="128" height="134" viewBox="0 0 128 134" version="1.1"><path d="M 88 11.375 C 79.498 13.816, 76.047 16.218, 67.283 25.790 C 62.452 31.067, 56.475 37.443, 54 39.960 C 51.525 42.477, 48.361 45.878, 46.969 47.518 C 45.576 49.158, 39.833 54.493, 34.206 59.374 C 20.497 71.263, 14.743 77.745, 10.816 85.721 C 4.921 97.697, 6.855 107.215, 17.055 116.431 C 25.492 124.053, 34.380 125.129, 45.090 119.826 C 52.087 116.362, 66.025 103.062, 74.564 91.703 C 77.105 88.323, 81.280 84.139, 83.842 82.404 C 90.411 77.957, 115.393 52.110, 117.931 47.135 C 121.199 40.730, 121.412 33.580, 118.524 27.272 C 117.204 24.389, 114.935 20.470, 113.482 18.565 C 108.470 11.994, 97.058 8.774, 88 11.375 M 86.563 15.725 C 82.502 16.760, 77.094 21.369, 65.250 33.893 C 58.513 41.017, 53.002 46.993, 53.005 47.173 C 53.008 47.353, 55.820 47.500, 59.255 47.500 L 65.500 47.500 76.427 36.237 C 88.534 23.758, 92.277 21.629, 97.968 23.987 C 102.333 25.795, 106.001 30.519, 105.996 34.327 C 105.992 38.128, 103.669 42.115, 95.968 51.539 C 88.599 60.557, 78.623 69.805, 75.390 70.617 C 71.282 71.648, 65.719 70.428, 61.512 67.572 C 57.626 64.936, 53.946 64.729, 51.606 67.015 C 48.692 69.861, 58.003 79.901, 65.502 82.001 C 75.561 84.817, 81.025 81.807, 98.602 63.768 C 112.951 49.043, 117 43.185, 117 37.152 C 117 30.042, 110.309 19.953, 103.560 16.888 C 99.688 15.129, 91.186 14.548, 86.563 15.725 M 91 27.655 C 88.928 28.445, 70 47.221, 70 48.487 C 70 49.051, 71.397 50.130, 73.105 50.886 C 74.812 51.642, 77.464 54.238, 78.997 56.656 L 81.785 61.052 88.958 53.276 C 97.450 44.070, 102 37.498, 102 34.439 C 102 29.824, 95.625 25.893, 91 27.655 M 50.500 52.154 C 42.687 55.067, 19.229 77.872, 14.711 86.946 C 11.851 92.691, 11.096 100.493, 12.933 105.324 C 15.534 112.164, 26.525 119.968, 33.590 119.990 C 41.577 120.015, 55.342 109.831, 67.136 95.171 L 73.229 87.597 67.365 86.256 L 61.500 84.915 58.500 88.313 C 56.850 90.181, 52.829 94.763, 49.564 98.494 C 42.370 106.715, 36.713 109.720, 31.607 108.035 C 24.093 105.556, 20.942 97.160, 24.609 89.392 C 26.903 84.531, 41.994 68.659, 47.946 64.847 C 53.663 61.186, 57.511 61.235, 64.813 65.062 C 70.861 68.233, 74.630 68.355, 77.033 65.460 C 78.756 63.384, 75.375 57.276, 70.843 54.277 C 66.427 51.355, 55.658 50.232, 50.500 52.154 M 38.870 77.750 C 26.449 90.624, 24.598 94.615, 28.412 100.295 C 30.034 102.710, 31.420 103.572, 34.032 103.794 C 38.488 104.171, 42.177 101.479, 49.583 92.443 C 52.691 88.652, 55.938 85.035, 56.799 84.405 C 58.159 83.410, 57.906 82.857, 54.876 80.196 C 52.956 78.510, 50.522 75.527, 49.465 73.566 C 48.409 71.605, 47.276 70, 46.946 70 C 46.616 70, 42.982 73.487, 38.870 77.750" stroke="none" fill="#484848" fill-rule="evenodd"/><path d="M 86.563 15.725 C 82.502 16.760, 77.094 21.369, 65.250 33.893 C 58.513 41.017, 53.002 46.993, 53.005 47.173 C 53.008 47.353, 55.820 47.500, 59.255 47.500 L 65.500 47.500 76.427 36.237 C 88.534 23.758, 92.277 21.629, 97.968 23.987 C 102.333 25.795, 106.001 30.519, 105.996 34.327 C 105.992 38.128, 103.669 42.115, 95.968 51.539 C 88.599 60.557, 78.623 69.805, 75.390 70.617 C 71.282 71.648, 65.719 70.428, 61.512 67.572 C 57.626 64.936, 53.946 64.729, 51.606 67.015 C 48.692 69.861, 58.003 79.901, 65.502 82.001 C 75.561 84.817, 81.025 81.807, 98.602 63.768 C 112.951 49.043, 117 43.185, 117 37.152 C 117 30.042, 110.309 19.953, 103.560 16.888 C 99.688 15.129, 91.186 14.548, 86.563 15.725 M 91 27.655 C 88.692 28.534, 70 47.295, 70 48.731 C 70 51.176, 71.692 49.924, 81.115 40.500 C 89.837 31.778, 90.932 31, 94.479 31 C 96.671 31, 99.134 31.716, 100.171 32.655 C 102.502 34.764, 102.560 32.896, 100.250 30.114 C 98.440 27.934, 93.626 26.655, 91 27.655 M 120.667 38.667 C 120.300 39.033, 120 40.176, 120 41.207 C 120 42.237, 119.059 44.924, 117.909 47.178 C 115.388 52.120, 90.382 77.976, 83.842 82.404 C 81.280 84.139, 77.105 88.323, 74.564 91.703 C 66.025 103.062, 52.087 116.362, 45.090 119.826 C 32.137 126.240, 20.999 123.138, 11.736 110.536 C 9.467 107.450, 8.945 107.088, 9.516 109 C 11.233 114.749, 18.542 121.934, 26 125.204 C 31.812 127.753, 37.969 127.217, 45.675 123.493 C 52.167 120.355, 69.427 103.705, 76.500 93.758 C 78.700 90.664, 81.726 87.603, 83.225 86.955 C 86.548 85.520, 112.723 59.290, 117.407 52.702 C 119.432 49.854, 121.053 46.132, 121.465 43.388 C 122.151 38.811, 121.916 37.418, 120.667 38.667 M 50.500 52.154 C 42.687 55.067, 19.229 77.872, 14.711 86.946 C 11.851 92.691, 11.096 100.493, 12.933 105.324 C 15.534 112.164, 26.525 119.968, 33.590 119.990 C 41.577 120.015, 55.342 109.831, 67.136 95.171 L 73.229 87.597 67.365 86.256 L 61.500 84.915 58.500 88.313 C 56.850 90.181, 52.829 94.763, 49.564 98.494 C 42.370 106.715, 36.713 109.720, 31.607 108.035 C 24.093 105.556, 20.942 97.160, 24.609 89.392 C 26.903 84.531, 41.994 68.659, 47.946 64.847 C 53.663 61.186, 57.511 61.235, 64.813 65.062 C 70.861 68.233, 74.630 68.355, 77.033 65.460 C 78.756 63.384, 75.375 57.276, 70.843 54.277 C 66.427 51.355, 55.658 50.232, 50.500 52.154 M 38.870 77.750 C 27.971 89.046, 24.820 94.534, 27.136 98.185 C 27.742 99.142, 27.975 98.955, 27.988 97.500 C 27.999 96.400, 28.885 94.061, 29.958 92.301 C 32.407 88.285, 46.059 73.840, 47.048 74.219 C 47.452 74.374, 49.677 76.907, 51.992 79.849 C 54.858 83.490, 56.529 84.871, 57.224 84.176 C 57.919 83.481, 57.150 82.193, 54.816 80.143 C 52.929 78.487, 50.522 75.527, 49.465 73.566 C 48.409 71.605, 47.276 70, 46.946 70 C 46.616 70, 42.982 73.487, 38.870 77.750" stroke="none" fill="#f3f3f3" fill-rule="evenodd"/></svg>