<svg xmlns="http://www.w3.org/2000/svg" width="182" height="190" viewBox="0 0 182 190" version="1.1"><path d="M 74 15.434 C 58.228 18.704, 42.910 26.584, 31.293 37.405 C 11.370 55.962, 2.060 79.384, 6.412 99.997 C 9.229 113.334, 17.352 126.042, 28.381 134.362 C 31.196 136.487, 33.492 138.512, 33.483 138.862 C 33.473 139.213, 32.469 141.377, 31.252 143.672 C 27.952 149.892, 18.303 159.812, 12.204 163.254 C 3.420 168.211, 3.909 171.157, 14.103 174.715 C 28.172 179.624, 45.062 176.152, 62.500 164.765 L 67.500 161.500 88 161.487 C 111.885 161.472, 117.877 160.281, 133.998 152.343 C 141.796 148.504, 144.874 146.259, 151.189 139.807 C 162.699 128.047, 171.810 113.341, 175.544 100.498 C 176.902 95.827, 177.147 92.199, 176.725 83.050 C 175.865 64.403, 170.618 52.656, 157.008 38.902 C 145.917 27.694, 133.995 20.894, 117.500 16.367 C 109.405 14.145, 82.954 13.578, 74 15.434 M 86.500 20.069 C 71.026 20.697, 66.622 21.933, 51.121 29.998 C 17.390 47.547, 2.298 83.355, 16.203 112.848 C 19.562 119.974, 28.250 129.308, 34.533 132.542 C 39.848 135.277, 40.243 138.827, 36.059 146.242 C 32.457 152.625, 23.652 162.617, 18.593 166.062 C 16.624 167.403, 15.011 168.779, 15.007 169.120 C 14.989 170.706, 24.494 172.243, 30.723 171.661 C 40.591 170.740, 49.347 167.405, 58.409 161.116 L 66.500 155.500 74 155.941 C 91.851 156.989, 109.398 156.427, 115.448 154.613 C 128.670 150.648, 141.216 142.721, 151.636 131.749 C 173.225 109.015, 178.423 80.878, 165.262 58 C 159.020 47.150, 149.698 37.543, 138.752 30.679 C 133.737 27.535, 119.595 22.329, 113 21.199 C 103.204 19.521, 101.633 19.454, 86.500 20.069 M 89.606 41.868 C 85.082 42.856, 82.648 46.941, 82.853 53.203 C 83.147 62.184, 89.280 67.493, 98.435 66.691 C 102.658 66.320, 103.919 65.669, 107.185 62.168 C 110.463 58.653, 111 57.428, 111 53.462 C 111 49.729, 110.459 48.305, 108.171 46.017 C 103.928 41.774, 97.066 40.240, 89.606 41.868 M 89 48 C 83.909 53.091, 89.682 62, 98.072 62 C 101.175 62, 106 57.120, 106 53.983 C 106 50.428, 103.986 48.368, 99.216 47.043 C 93.752 45.526, 91.239 45.761, 89 48 M 76.404 73.548 C 70.405 75.768, 67.824 78.533, 68.193 82.342 C 68.485 85.342, 68.758 85.531, 73.649 86.128 C 76.481 86.474, 79.293 87.063, 79.899 87.437 C 81.776 88.597, 81.117 94.503, 78.465 100.296 C 71.524 115.456, 73.280 127.434, 83.200 132.595 C 86.725 134.429, 98.094 134.405, 102.523 132.555 C 107.007 130.681, 111 126.649, 111 123.994 C 111 121.510, 105.261 118.713, 101.144 119.192 C 98.715 119.475, 98.508 119.215, 98.597 116 C 98.651 114.075, 100.197 109.125, 102.033 105 C 104.222 100.080, 105.514 95.423, 105.788 91.463 C 106.177 85.846, 105.972 85.118, 102.838 81.010 C 100.986 78.582, 98.065 75.774, 96.346 74.770 C 92.034 72.252, 81.628 71.614, 76.404 73.548 M 78.322 78.326 C 73.615 80.064, 73.494 80.683, 77.703 81.469 C 82.177 82.306, 83.613 83.351, 85.621 87.233 C 86.950 89.804, 86.933 90.721, 85.460 95.806 C 84.553 98.938, 83.416 101.981, 82.933 102.569 C 82.450 103.157, 81.354 106.660, 80.498 110.353 C 78.628 118.414, 79.654 123.796, 83.659 126.946 C 86.939 129.527, 95.434 129.725, 100.782 127.346 L 104.500 125.693 100 124.596 C 97.525 123.993, 94.938 123.136, 94.250 122.691 C 91.722 121.055, 92.874 113.277, 97.114 103.352 C 100.498 95.432, 101.140 92.934, 100.729 89.285 C 99.659 79.791, 88.771 74.466, 78.322 78.326" stroke="none" fill="#444444" fill-rule="evenodd"/><path d="M 86.500 20.069 C 71.026 20.697, 66.622 21.933, 51.121 29.998 C 17.390 47.547, 2.298 83.355, 16.203 112.848 C 19.562 119.974, 28.250 129.308, 34.533 132.542 C 39.848 135.277, 40.243 138.827, 36.059 146.242 C 32.457 152.625, 23.652 162.617, 18.593 166.062 C 16.624 167.403, 15.011 168.779, 15.007 169.120 C 14.989 170.706, 24.494 172.243, 30.723 171.661 C 40.591 170.740, 49.347 167.405, 58.409 161.116 L 66.500 155.500 74 155.941 C 91.851 156.989, 109.398 156.427, 115.448 154.613 C 128.670 150.648, 141.216 142.721, 151.636 131.749 C 173.225 109.015, 178.423 80.878, 165.262 58 C 159.020 47.150, 149.698 37.543, 138.752 30.679 C 133.737 27.535, 119.595 22.329, 113 21.199 C 103.204 19.521, 101.633 19.454, 86.500 20.069 M 89.606 41.868 C 85.082 42.856, 82.648 46.941, 82.853 53.203 C 83.147 62.184, 89.280 67.493, 98.435 66.691 C 102.658 66.320, 103.919 65.669, 107.185 62.168 C 110.463 58.653, 111 57.428, 111 53.462 C 111 49.729, 110.459 48.305, 108.171 46.017 C 103.928 41.774, 97.066 40.240, 89.606 41.868 M 89 48 C 83.909 53.091, 89.682 62, 98.072 62 C 101.175 62, 106 57.120, 106 53.983 C 106 50.428, 103.986 48.368, 99.216 47.043 C 93.752 45.526, 91.239 45.761, 89 48 M 76.404 73.548 C 70.405 75.768, 67.824 78.533, 68.193 82.342 C 68.485 85.342, 68.758 85.531, 73.649 86.128 C 76.481 86.474, 79.293 87.063, 79.899 87.437 C 81.776 88.597, 81.117 94.503, 78.465 100.296 C 71.524 115.456, 73.280 127.434, 83.200 132.595 C 86.725 134.429, 98.094 134.405, 102.523 132.555 C 107.007 130.681, 111 126.649, 111 123.994 C 111 121.510, 105.261 118.713, 101.144 119.192 C 98.715 119.475, 98.508 119.215, 98.597 116 C 98.651 114.075, 100.197 109.125, 102.033 105 C 104.222 100.080, 105.514 95.423, 105.788 91.463 C 106.177 85.846, 105.972 85.118, 102.838 81.010 C 100.986 78.582, 98.065 75.774, 96.346 74.770 C 92.034 72.252, 81.628 71.614, 76.404 73.548 M 176.079 74.583 C 176.127 75.748, 176.364 75.985, 176.683 75.188 C 176.972 74.466, 176.936 73.603, 176.604 73.271 C 176.272 72.939, 176.036 73.529, 176.079 74.583 M 78.322 78.326 C 73.615 80.064, 73.494 80.683, 77.703 81.469 C 82.177 82.306, 83.613 83.351, 85.621 87.233 C 86.950 89.804, 86.933 90.721, 85.460 95.806 C 84.553 98.938, 83.416 101.981, 82.933 102.569 C 82.450 103.157, 81.354 106.660, 80.498 110.353 C 78.628 118.414, 79.654 123.796, 83.659 126.946 C 86.939 129.527, 95.434 129.725, 100.782 127.346 L 104.500 125.693 100 124.596 C 97.525 123.993, 94.938 123.136, 94.250 122.691 C 91.722 121.055, 92.874 113.277, 97.114 103.352 C 100.498 95.432, 101.140 92.934, 100.729 89.285 C 99.659 79.791, 88.771 74.466, 78.322 78.326 M 177.125 86.068 C 177.053 91.589, 176.318 97.935, 175.388 101.068 C 171.685 113.542, 162.491 128.259, 151.189 139.807 C 144.874 146.259, 141.796 148.504, 133.998 152.343 C 117.877 160.281, 111.885 161.472, 88 161.487 L 67.500 161.500 62.500 164.765 C 44.829 176.304, 28.135 179.652, 13.692 174.555 C 5.745 171.751, 5.055 173.221, 12.545 177 C 16.945 179.220, 18.732 179.498, 28.500 179.480 C 34.999 179.468, 41.137 178.910, 43.500 178.117 C 48.996 176.272, 60.588 170.376, 65.893 166.728 L 70.286 163.707 81.633 164.972 C 95.033 166.466, 104.462 165.786, 117.326 162.400 C 130.784 158.858, 141.797 153.100, 150.106 145.261 C 170.451 126.068, 181.239 101.707, 178.120 82 C 177.285 76.726, 177.244 76.893, 177.125 86.068 M 13.186 119.250 C 16.750 125.993, 29.811 140, 32.535 140 C 35.036 140, 33.976 138.553, 28.393 134.347 C 22.307 129.763, 15.710 122.312, 12.954 116.909 C 11.857 114.759, 10.717 113, 10.421 113 C 10.125 113, 11.369 115.813, 13.186 119.250" stroke="none" fill="#f9f9f9" fill-rule="evenodd"/></svg>