<?xml version="1.0" standalone="no"?>
<!DOCTYPE svg PUBLIC "-//W3C//DTD SVG 20010904//EN"
 "http://www.w3.org/TR/2001/REC-SVG-20010904/DTD/svg10.dtd">
<svg version="1.0" xmlns="http://www.w3.org/2000/svg"
 width="182.000000pt" height="190.000000pt" viewBox="0 0 182.000000 190.000000"
 preserveAspectRatio="xMidYMid meet">
<metadata>
Created by potrace 1.16, written by Peter Selinger 2001-2019
</metadata>
<g transform="translate(0.000000,190.000000) scale(0.100000,-0.100000)"
fill="#000000" stroke="none">
<path d="M735 1745 c-172 -38 -312 -112 -433 -229 -109 -104 -174 -203 -218
-332 -23 -66 -28 -96 -28 -179 0 -55 6 -120 13 -145 29 -103 156 -270 250
-331 l24 -15 -37 -57 c-52 -83 -109 -141 -182 -187 -71 -45 -80 -67 -36 -92
42 -25 131 -48 182 -48 100 0 258 57 367 132 l43 29 163 -7 c184 -8 263 3 413
57 148 54 268 152 375 306 126 182 161 332 125 534 -48 268 -300 498 -618 563
-94 20 -317 20 -403 1z m363 -50 c292 -47 525 -237 605 -490 98 -313 -131
-696 -498 -833 -79 -30 -105 -35 -212 -40 -75 -3 -157 0 -211 8 -100 14 -98
15 -214 -63 -37 -25 -93 -55 -124 -67 -74 -27 -203 -36 -263 -18 l-44 13 58
45 c97 75 195 212 195 274 0 18 -11 31 -45 51 -150 87 -235 240 -235 422 0
106 20 186 72 285 89 172 271 318 487 389 119 40 276 49 429 24z"/>
<path d="M908 1483 c-14 -2 -38 -15 -52 -28 -22 -21 -26 -32 -26 -82 1 -65 8
-79 64 -117 63 -42 136 -29 189 33 31 37 35 86 12 130 -24 47 -112 77 -187 64z
m126 -67 c51 -33 25 -116 -41 -132 -85 -22 -160 79 -102 137 18 18 30 20 70
17 26 -3 59 -12 73 -22z"/>
<path d="M778 1166 c-57 -21 -87 -44 -94 -71 -11 -42 1 -55 51 -55 47 0 85
-25 85 -56 0 -9 -13 -46 -30 -83 -55 -127 -60 -208 -16 -274 41 -62 140 -85
238 -55 71 21 123 91 86 115 -7 4 -38 10 -68 13 -54 5 -55 5 -52 35 2 17 19
66 39 110 64 145 52 232 -42 297 -50 34 -141 45 -197 24z m145 -50 c18 -7 45
-28 60 -45 39 -47 36 -99 -10 -203 -58 -133 -56 -208 6 -208 14 0 36 -3 49 -6
l23 -7 -22 -15 c-13 -9 -53 -17 -96 -20 -67 -4 -76 -2 -98 18 -54 51 -56 120
-5 248 52 129 33 193 -62 208 l-43 7 40 18 c48 22 114 24 158 5z"/>
</g>
</svg>
