<?xml version="1.0" standalone="no"?>
<!DOCTYPE svg PUBLIC "-//W3C//DTD SVG 20010904//EN"
 "http://www.w3.org/TR/2001/REC-SVG-20010904/DTD/svg10.dtd">
<svg version="1.0" xmlns="http://www.w3.org/2000/svg"
 width="128.000000pt" height="134.000000pt" viewBox="0 0 128.000000 134.000000"
 preserveAspectRatio="xMidYMid meet">

<g transform="translate(0.000000,134.000000) scale(0.100000,-0.100000)"
fill="#000000" stroke="none">
<path d="M645 1186 c-66 -40 -154 -94 -197 -119 l-76 -47 -146 -3 c-123 -2
-149 -5 -164 -20 -15 -16 -18 -55 -25 -375 -8 -344 -5 -489 9 -525 6 -16 42
-17 511 -15 l504 3 14 25 c21 38 153 423 170 497 22 93 20 118 -11 142 -19 15
-41 21 -78 21 l-51 0 -2 45 c-3 74 -20 99 -78 109 l-50 9 -72 121 c-39 67 -81
140 -94 164 -12 23 -27 42 -33 42 -6 -1 -65 -34 -131 -74z m178 -55 c61 -98
197 -343 197 -355 0 -8 -239 0 -247 7 -2 3 17 17 42 31 25 15 45 33 45 41 0 8
-2 15 -5 15 -2 0 -38 -20 -79 -45 -74 -45 -76 -46 -153 -43 l-77 3 97 63 c54
35 105 66 112 69 18 6 20 33 2 33 -7 0 -42 -20 -78 -44 -177 -119 -187 -123
-288 -127 l-92 -4 -35 62 -35 61 188 115 c103 63 222 135 263 160 41 26 78 46
81 47 4 0 32 -40 62 -89z m-533 -150 c0 -4 -22 -22 -50 -39 -55 -35 -56 -35
-8 -113 15 -25 28 -49 28 -53 0 -4 -13 -18 -29 -32 -37 -31 -81 -165 -106
-319 -4 -22 -16 -80 -27 -128 -20 -87 -18 -143 3 -105 5 10 28 104 50 209 39
187 66 277 92 312 22 31 162 39 572 31 209 -3 388 -11 398 -16 11 -6 17 -21
17 -44 0 -36 -163 -538 -182 -561 -15 -19 -963 -19 -975 0 -9 13 -6 733 3 809
5 38 10 48 27 51 42 8 187 7 187 -2z m772 -105 c8 -12 11 -106 3 -106 -9 0
-64 118 -58 124 9 8 46 -4 55 -18z"/>
<path d="M667 1026 c-119 -71 -297 -193 -297 -203 0 -7 4 -13 9 -13 6 0 76 43
156 95 80 53 157 101 170 107 26 12 35 39 13 37 -7 0 -30 -11 -51 -23z"/>
</g>
</svg>
