<svg xmlns="http://www.w3.org/2000/svg" width="128" height="134" viewBox="0 0 128 134" version="1.1"><path d="M 50.535 10.700 C 33.505 10.881, 19.247 11.360, 18.852 11.765 C 18.457 12.169, 18.030 36.546, 17.904 65.936 C 17.682 117.596, 17.738 119.413, 19.587 120.613 C 22.330 122.393, 100.758 123.722, 106.730 122.090 L 110.960 120.934 111.230 75.717 L 111.500 30.500 105.500 22.601 C 102.200 18.256, 98.258 13.777, 96.739 12.647 C 93.488 10.229, 93.759 10.240, 50.535 10.700 M 21.777 66.250 C 21.624 94.438, 21.601 117.676, 21.725 117.892 C 21.849 118.107, 41.087 118.509, 64.475 118.785 L 107 119.286 107 76.687 L 107 34.088 99.750 33.794 L 92.500 33.500 92.637 24.250 L 92.775 15 57.414 15 L 22.053 15 21.777 66.250 M 96 23.845 L 96 30 101.062 30 L 106.124 30 102.896 25.504 C 101.120 23.032, 98.842 20.262, 97.834 19.350 C 96.074 17.757, 96 17.939, 96 23.845 M 112.461 78.500 C 112.461 103.800, 112.591 114.007, 112.749 101.181 C 112.908 88.356, 112.907 67.656, 112.749 55.181 C 112.590 42.707, 112.461 53.200, 112.461 78.500 M 58.500 47.167 C 54.518 49.369, 51.957 52.446, 50.930 56.261 C 49.618 61.134, 50.917 63, 55.622 63 C 58.192 63, 59 62.575, 59 61.223 C 59 57.936, 61.981 54.861, 64.847 55.193 C 67.006 55.443, 67.557 56.082, 67.804 58.627 C 68.043 61.086, 67.244 62.752, 64.054 66.437 C 60.665 70.354, 60 71.830, 60 75.438 C 60 80.270, 61.670 82.327, 65.186 81.827 C 67.101 81.554, 67.596 80.698, 68.171 76.661 C 68.731 72.728, 69.621 71.119, 72.930 68.065 C 76.729 64.557, 77 63.946, 77 58.876 C 77 52.783, 75.416 49.784, 70.989 47.494 C 67.614 45.749, 61.360 45.585, 58.500 47.167 M 61.046 86.445 C 59.099 88.791, 60.197 92.354, 63.190 93.402 C 66.491 94.558, 69 92.835, 69 89.413 C 69 85.633, 63.441 83.559, 61.046 86.445" stroke="none" fill="#474747" fill-rule="evenodd"/><path d="M 21.777 66.250 C 21.624 94.438, 21.601 117.676, 21.725 117.892 C 21.849 118.107, 41.087 118.509, 64.475 118.785 L 107 119.286 107 76.687 L 107 34.088 99.750 33.794 L 92.500 33.500 92.637 24.250 L 92.775 15 57.414 15 L 22.053 15 21.777 66.250 M 96 23.845 L 96 30 101.062 30 L 106.124 30 102.896 25.504 C 101.120 23.032, 98.842 20.262, 97.834 19.350 C 96.074 17.757, 96 17.939, 96 23.845 M 111.240 76.203 L 111 120.906 107.250 121.947 C 103.186 123.076, 76.670 123.148, 41.500 122.126 C 29.400 121.774, 19.302 121.613, 19.060 121.767 C 18.817 121.921, 19.358 122.787, 20.262 123.690 C 21.723 125.152, 26.748 125.377, 65.702 125.729 C 89.938 125.948, 110.063 125.732, 110.760 125.247 C 111.750 124.558, 111.962 114.397, 111.750 77.935 L 111.480 31.500 111.240 76.203 M 58.500 47.167 C 54.518 49.369, 51.957 52.446, 50.930 56.261 C 49.618 61.134, 50.917 63, 55.622 63 C 58.192 63, 59 62.575, 59 61.223 C 59 57.936, 61.981 54.861, 64.847 55.193 C 67.006 55.443, 67.557 56.082, 67.804 58.627 C 68.043 61.086, 67.244 62.752, 64.054 66.437 C 60.665 70.354, 60 71.830, 60 75.438 C 60 80.270, 61.670 82.327, 65.186 81.827 C 67.101 81.554, 67.596 80.698, 68.171 76.661 C 68.731 72.728, 69.621 71.119, 72.930 68.065 C 76.729 64.557, 77 63.946, 77 58.876 C 77 52.783, 75.416 49.784, 70.989 47.494 C 67.614 45.749, 61.360 45.585, 58.500 47.167 M 61.046 86.445 C 59.099 88.791, 60.197 92.354, 63.190 93.402 C 66.491 94.558, 69 92.835, 69 89.413 C 69 85.633, 63.441 83.559, 61.046 86.445" stroke="none" fill="#f9f9f9" fill-rule="evenodd"/></svg>